<svg width="88" height="75" viewBox="0 0 88 75" fill="none" xmlns="http://www.w3.org/2000/svg">
<path fill-rule="evenodd" clip-rule="evenodd" d="M50.3972 11.5311C45.6172 11.5311 41.7422 15.4061 41.7422 20.1861V29.7291C41.7422 34.5092 45.6172 38.3842 50.3972 38.3842H58.467C59.662 38.3842 60.6307 37.4154 60.6307 36.2204V13.6948C60.6307 12.4998 59.662 11.5311 58.467 11.5311H50.3972ZM51.6834 13.972C47.5008 13.972 44.1102 17.3626 44.1102 21.5451V23.7367H58.2766V13.972H51.6834Z" fill="#262626"/>
<rect x="62.9727" y="15.1925" width="3.5416" height="9.76477" fill="#262626"/>
<path d="M68.8906 15.1929H83.4516C85.8417 15.1929 87.7792 17.1304 87.7792 19.5204V30.3949C87.7792 32.7849 85.8417 34.7224 83.4516 34.7224H73.2181C70.8281 34.7224 68.8906 32.7849 68.8906 30.3949V15.1929Z" fill="#262626"/>
<path d="M32.2754 69.8417C32.2754 68.6467 33.2441 67.678 34.4391 67.678H72.6108C73.8058 67.678 74.7746 68.6467 74.7746 69.8417V75.0016H32.2754V69.8417Z" fill="#262626"/>
<g clip-path="url(#clip0_307_58)">
<path fill-rule="evenodd" clip-rule="evenodd" d="M56.0135 64.5176L54.2147 62.8984L56.0135 61.2791V64.5176ZM56.0135 58.7454L54.2147 57.1262L56.0135 55.5069V58.7454ZM56.0135 52.2547L54.2147 50.6354L56.0135 49.0162V52.2547ZM56.0135 45.7615L53.6221 43.6073L53.1398 43.1727L52.6571 43.6069L50.2393 45.7815V44.5039C50.2393 44.1056 49.9164 43.7827 49.5181 43.7827C49.1198 43.7827 48.7969 44.1056 48.7969 44.5039V66.1434C48.7969 66.5417 49.1198 66.8646 49.5181 66.8646C49.7067 66.8646 49.8785 66.7921 50.007 66.6735L50.0131 66.6803L53.1366 63.8688L56.1951 66.6219C56.3273 66.7708 56.52 66.8646 56.7347 66.8646C57.133 66.8646 57.4559 66.5417 57.4559 66.1434V44.504C57.4559 44.1056 57.133 43.7828 56.7347 43.7828C56.3364 43.7828 56.0135 44.1056 56.0135 44.504V45.7615ZM52.0585 62.8984L50.2393 61.2608V64.536L52.0585 62.8984ZM52.0585 57.1262L50.2393 55.4886V58.7637L52.0585 57.1262ZM50.2393 48.9978V52.273L52.0585 50.6354L50.2393 48.9978ZM55.665 47.3891L53.1366 49.665L50.6086 47.3895L53.139 45.1135L55.665 47.3891ZM53.1366 51.6058L50.6092 53.8808L53.1366 56.1558L55.6639 53.8808L53.1366 51.6058ZM55.2648 60.0123L53.1366 61.928L51.0084 60.0123L53.1366 58.0966L55.2648 60.0123Z" fill="#262626"/>
</g>
<path fill-rule="evenodd" clip-rule="evenodd" d="M55.1575 1.10644C54.5868 -0.368817 52.4995 -0.36881 51.9287 1.10644L48.9837 8.71879C48.8378 8.95571 48.8406 9.26054 48.9972 9.49578C49.091 9.67645 49.2484 9.825 49.4531 9.9042C49.8989 10.0767 50.4001 9.85509 50.5726 9.40928L50.7138 9.04433L53.536 6.42021L56.3829 9.07146L56.5136 9.40928C56.6861 9.85509 57.1873 10.0767 57.6331 9.9042C57.9206 9.79298 58.1148 9.54504 58.1703 9.26342C58.1962 9.15371 58.1961 9.03932 58.1702 8.92998C58.1606 8.88124 58.1466 8.83266 58.128 8.78472L55.1575 1.10644ZM55.1909 5.99018L53.5431 1.73101L51.904 5.96799L53.0453 4.90679L53.5368 4.44977L54.0279 4.90717L55.1909 5.99018Z" fill="#262626"/>
<path fill-rule="evenodd" clip-rule="evenodd" d="M9.11013 17.7022L8.32893 18.2962L8.47583 18.5249L9.11013 17.7022ZM7.17705 19.172L1.62462 23.3938C1.62348 23.3947 1.62282 23.396 1.62282 23.3975L1.62293 23.3992C1.62286 23.399 1.62284 23.399 1.62284 23.399C1.6229 23.3991 1.62293 23.3992 1.62294 23.3993L1.62293 23.3992C1.62309 23.3994 1.62346 23.4 1.62415 23.4007C1.62516 23.4017 1.62589 23.402 1.62585 23.402C1.62527 23.4017 1.62525 23.402 1.62738 23.402H4.71567L7.54056 19.738L7.17705 19.172ZM6.53712 23.402H9.89381L8.36833 21.0268L6.53712 23.402ZM12.8123 23.402H16.0101L14.4112 21.3282L12.8123 23.402ZM19.0802 23.402H22.2783L20.6792 21.328L19.0802 23.402ZM25.3618 23.402H28.5599L26.9608 21.328L25.3618 23.402ZM31.6276 23.402H34.8257L33.2266 21.328L31.6276 23.402ZM36.5922 23.3308C37.3705 23.1264 37.9908 22.4996 38.1657 21.6828L38.6227 19.549C38.9037 18.237 37.9429 16.9976 36.6231 16.9226L34.1374 20.1467L36.5922 23.3308ZM34.8044 16.919H31.6489L33.2266 18.9654L34.8044 16.919ZM28.5386 16.919H25.3831L26.9608 18.9654L28.5386 16.919ZM22.257 16.919H19.1015L20.6792 18.9654L22.257 16.919ZM15.9891 16.919H12.8333L14.4112 18.9657L15.9891 16.919ZM10.873 15.2962C10.0427 15.2962 9.2354 15.5683 8.57453 16.0708L0.642387 22.102C0.237645 22.4098 0 22.889 0 23.3975C0 24.2962 0.728599 25.0248 1.62738 25.0248H36.0394C37.8302 25.0248 39.3776 23.7737 39.7526 22.0227L40.2096 19.8888C40.7158 17.525 38.9138 15.2962 36.4964 15.2962H10.873ZM13.5005 20.1469L11.3277 22.9652L9.30361 19.8137L11.2736 17.2586L13.5005 20.1469ZM21.59 20.1467L23.82 17.2542L26.0501 20.1467L23.82 23.0392L21.59 20.1467ZM17.5453 17.2631L19.7685 20.1467L17.5451 23.0306L15.3219 20.1469L17.5453 17.2631ZM30.0937 17.2644L27.8716 20.1467L30.0937 23.029L32.3159 20.1467L30.0937 17.2644Z" fill="#262626"/>
<path d="M59.4434 5.42761L77.1514 12.7512" stroke="#262626" stroke-width="1.51463" stroke-linecap="round"/>
<path d="M47.6328 5.42816L24.0222 12.7517" stroke="#262626" stroke-width="1.51463" stroke-linecap="round"/>
<path fill-rule="evenodd" clip-rule="evenodd" d="M12.6655 27.3989C12.6655 26.8014 12.1811 26.317 11.5836 26.317C10.9861 26.317 10.5017 26.8014 10.5017 27.3989V43.9157C10.1457 44.119 9.83919 44.4315 9.63532 44.8531L8.36304 47.484C7.6682 48.9208 8.71495 50.5898 10.311 50.5898H12.8555C14.4516 50.5898 15.4983 48.9208 14.8035 47.484L13.5312 44.8531C13.3275 44.4318 13.0212 44.1195 12.6655 43.9161V27.3989Z" fill="#262626"/>
<defs>
<clipPath id="clip0_307_58">
<rect width="9.44426" height="26.0394" fill="white" transform="matrix(1 0 0 -1 48.8184 66.8641)"/>
</clipPath>
</defs>
</svg>
