<svg width="138" height="955" viewBox="0 0 138 955" fill="none" xmlns="http://www.w3.org/2000/svg">
<path d="M3.64641 954.354C3.84167 954.549 4.15826 954.549 4.35352 954.354L7.5355 951.172C7.73076 950.976 7.73076 950.66 7.5355 950.464C7.34024 950.269 7.02366 950.269 6.82839 950.464L3.99997 953.293L1.17154 950.464C0.976277 950.269 0.659694 950.269 0.464432 950.464C0.26917 950.66 0.26917 950.976 0.464432 951.172L3.64641 954.354ZM3.5 -2.66628e-08L3.49997 954L4.49997 954L4.5 2.66628e-08L3.5 -2.66628e-08Z" fill="#A5A2A2"/>
<path opacity="0.5" d="M68.6464 908.354C68.8417 908.549 69.1583 908.549 69.3535 908.354L72.5355 905.172C72.7308 904.976 72.7308 904.66 72.5355 904.465C72.3402 904.269 72.0237 904.269 71.8284 904.465L69 907.293L66.1715 904.465C65.9763 904.269 65.6597 904.269 65.4644 904.465C65.2692 904.66 65.2692 904.976 65.4644 905.172L68.6464 908.354ZM68.5 -2.66628e-08L68.5 908L69.5 908L69.5 2.66628e-08L68.5 -2.66628e-08Z" fill="#A5A2A2"/>
<path d="M133.646 954.354C133.842 954.549 134.158 954.549 134.354 954.354L137.535 951.172C137.731 950.976 137.731 950.66 137.535 950.464C137.34 950.269 137.024 950.269 136.828 950.464L134 953.293L131.172 950.464C130.976 950.269 130.66 950.269 130.464 950.464C130.269 950.66 130.269 950.976 130.464 951.172L133.646 954.354ZM133.5 -2.66628e-08L133.5 954L134.5 954L134.5 2.66628e-08L133.5 -2.66628e-08Z" fill="#A5A2A2"/>
</svg>
