<svg width="128" height="40" viewBox="0 0 128 40" fill="none" xmlns="http://www.w3.org/2000/svg">
<mask id="path-1-inside-1_67_54" fill="white">
<path d="M30.2786 15.6677L57.6734 26.6746L59.1153 24.2286L30.2786 5.88381V15.6677Z"/>
<path d="M30.2786 30.0378L52.4828 32.4837L56.8083 28.509L30.2786 19.9481V30.0378Z"/>
<path d="M8.07428 32.4837L30.2786 30.0378V19.9481L4.03714 28.509L8.07428 32.4837Z"/>
<path d="M2.88367 26.6746L30.2786 15.6677V5.88381L1.15347 24.2286L2.88367 26.6746Z"/>
</mask>
<path d="M30.2786 15.6677L57.6734 26.6746L59.1153 24.2286L30.2786 5.88381V15.6677Z" fill="#D9D9D9"/>
<path d="M30.2786 30.0378L52.4828 32.4837L56.8083 28.509L30.2786 19.9481V30.0378Z" fill="#D9D9D9"/>
<path d="M8.07428 32.4837L30.2786 30.0378V19.9481L4.03714 28.509L8.07428 32.4837Z" fill="#D9D9D9"/>
<path d="M2.88367 26.6746L30.2786 15.6677V5.88381L1.15347 24.2286L2.88367 26.6746Z" fill="#D9D9D9"/>
<path d="M54.6312 19.9481C54.6312 22.6667 52.9191 25.9338 48.4723 28.8076C44.0853 31.6427 37.6693 33.59 30.2786 33.59V45.4418C39.6102 45.4418 48.3335 43.0087 54.9052 38.7617C61.417 34.5534 66.483 28.0366 66.483 19.9481H54.6312ZM30.2786 33.59C22.8878 33.59 16.4718 31.6427 12.0848 28.8076C7.63799 25.9338 5.92593 22.6667 5.92593 19.9481H-5.92593C-5.92593 28.0366 -0.859907 34.5534 5.65192 38.7617C12.2236 43.0087 20.9469 45.4418 30.2786 45.4418V33.59ZM5.92593 19.9481C5.92593 17.2296 7.63799 13.9625 12.0848 11.0887C16.4718 8.25358 22.8878 6.3063 30.2786 6.3063V-5.54556C20.9469 -5.54556 12.2236 -3.11244 5.65192 1.13459C-0.859907 5.34292 -5.92593 11.8597 -5.92593 19.9481H5.92593ZM30.2786 6.3063C37.6693 6.3063 44.0853 8.25358 48.4723 11.0887C52.9191 13.9625 54.6312 17.2296 54.6312 19.9481H66.483C66.483 11.8597 61.417 5.34292 54.9052 1.13459C48.3335 -3.11244 39.6102 -5.54556 30.2786 -5.54556V6.3063ZM24.3526 5.88381V15.6677H36.2045V5.88381H24.3526ZM24.3526 19.9481V30.0378H36.2045V19.9481H24.3526ZM8.07428 32.4837L-0.240682 40.9293L3.77316 44.8811L9.372 44.2643L8.07428 32.4837ZM52.4828 32.4837L51.1851 44.2643L56.5372 44.8539L60.502 41.2107L52.4828 32.4837ZM30.2786 30.0378L31.5763 18.2572L30.2786 18.1142L28.9808 18.2572L30.2786 30.0378ZM4.03714 28.509L0.361301 17.2416L-18.1624 23.2847L-4.27782 36.9546L4.03714 28.509ZM56.8083 28.509L64.8275 37.236L79.8026 23.4754L60.448 17.2299L56.8083 28.509ZM30.2786 19.9481L33.9182 8.66899L30.2586 7.48806L26.6027 8.68073L30.2786 19.9481ZM2.88367 26.6746L-6.79213 33.5189L-1.38531 41.1625L7.30226 37.6719L2.88367 26.6746ZM57.6734 26.6746L53.2548 37.6719L62.7093 41.4706L67.8834 32.6931L57.6734 26.6746ZM30.2786 15.6677L34.6971 4.67031L30.2786 2.89498L25.86 4.67031L30.2786 15.6677ZM1.15347 24.2286L-5.16302 14.2002L-15.7435 20.8645L-8.52233 31.073L1.15347 24.2286ZM59.1153 24.2286L69.3253 30.2471L75.1429 20.3779L65.4768 14.2287L59.1153 24.2286ZM30.2786 5.88381L36.6401 -4.11606L30.3101 -8.14295L23.9621 -4.14457L30.2786 5.88381ZM9.372 44.2643L31.5763 41.8184L28.9808 18.2572L6.77656 20.7032L9.372 44.2643ZM28.9808 41.8184L51.1851 44.2643L53.7805 20.7032L31.5763 18.2572L28.9808 41.8184ZM7.71298 39.7765L33.9544 31.2156L26.6027 8.68073L0.361301 17.2416L7.71298 39.7765ZM26.6389 31.2273L53.1687 39.7882L60.448 17.2299L33.9182 8.66899L26.6389 31.2273ZM7.30226 37.6719L34.6971 26.6651L25.86 4.67031L-1.53492 15.6772L7.30226 37.6719ZM25.86 26.6651L53.2548 37.6719L62.092 15.6772L34.6971 4.67031L25.86 26.6651ZM7.46996 34.257L36.595 15.9122L23.9621 -4.14457L-5.16302 14.2002L7.46996 34.257ZM23.917 15.8837L52.7537 34.2285L65.4768 14.2287L36.6401 -4.11606L23.917 15.8837ZM67.8834 32.6931L69.3253 30.2471L48.9053 18.2101L47.4634 20.656L67.8834 32.6931ZM60.502 41.2107L64.8275 37.236L48.7892 19.7821L44.4637 23.7568L60.502 41.2107ZM16.3892 24.0382L12.3521 20.0635L-4.27782 36.9546L-0.240682 40.9293L16.3892 24.0382ZM12.5595 19.8302L10.8293 17.3842L-8.52233 31.073L-6.79213 33.5189L12.5595 19.8302Z" fill="#3F62DE" mask="url(#path-1-inside-1_67_54)"/>
<path fill-rule="evenodd" clip-rule="evenodd" d="M60.656 20C60.656 30.4934 47.0777 39 30.328 39C13.5783 39 0 30.4934 0 20C0 9.50659 13.5783 1 30.328 1C47.0777 1 60.656 9.50659 60.656 20ZM30.3269 19.339L4.13456 27.6224C3.95379 27.3923 3.78116 27.1598 3.61682 26.9251L30.328 16.5213L57.0391 26.9251C56.8919 27.1354 56.738 27.3439 56.5775 27.5506L30.3269 19.339ZM8.29608 31.5169C7.05076 30.6289 5.95552 29.6733 5.0235 28.664L29.6805 20.8662V29.2333L8.29608 31.5169ZM30.9755 29.2333V20.8632L55.695 28.5959C54.7496 29.6303 53.6332 30.6089 52.3599 31.5169L30.9755 29.2333ZM30.328 30.4296L50.702 32.6052C45.4805 35.7622 38.3016 37.7422 30.328 37.7422C22.3543 37.7422 15.1754 35.7622 9.95392 32.6052L30.328 30.4296ZM29.6805 15.4184L2.92507 25.8394C2.63177 25.3299 2.37643 24.8114 2.16037 24.2854L29.6805 7.48192V15.4184ZM1.29495 20C1.29495 21.0366 1.44373 22.06 1.73268 23.0609L30.3297 5.59987L58.8801 23.2068C59.1974 22.1595 59.361 21.0871 59.361 20C59.361 15.3244 56.3343 10.9192 51.0712 7.62196C45.8215 4.33311 38.4912 2.25778 30.328 2.25778C22.1647 2.25778 14.8345 4.33311 9.58476 7.62196C4.3217 10.9192 1.29495 15.3244 1.29495 20ZM30.9755 7.48799L58.4377 24.4239C58.2344 24.9024 57.9984 25.3746 57.7309 25.8394L30.9755 15.4184V7.48799Z" fill="#262626"/>
<path d="M112.843 28.2538C114.347 29.2043 116.206 29.6795 118.421 29.6795C121.006 29.6795 123.102 29.0292 124.709 27.7286C126.326 26.428 127.423 24.6872 128 22.5062L126.161 22.071C125.688 23.8718 124.802 25.3075 123.504 26.378C122.216 27.4485 120.522 27.9837 118.421 27.9837C116.598 27.9837 115.073 27.5785 113.847 26.7681C112.622 25.9478 111.7 24.8222 111.082 23.3916C110.474 21.9509 110.18 20.2951 110.201 18.4243C110.211 16.5534 110.52 14.8976 111.128 13.457C111.746 12.0163 112.658 10.8908 113.863 10.0804C115.078 9.27001 116.598 8.86482 118.421 8.86482C120.522 8.86482 122.216 9.40007 123.504 10.4706C124.802 11.5311 125.688 12.9667 126.161 14.7776L128 14.3424C127.423 12.1614 126.326 10.4205 124.709 9.11994C123.102 7.81934 121.006 7.16904 118.421 7.16904C116.206 7.16904 114.347 7.64926 112.843 8.60971C111.339 9.56015 110.206 10.8808 109.444 12.5715C108.682 14.2623 108.301 16.2132 108.301 18.4243C108.301 20.6353 108.682 22.5862 109.444 24.277C110.206 25.9678 111.339 27.2934 112.843 28.2538Z" fill="#262626"/>
<path fill-rule="evenodd" clip-rule="evenodd" d="M67.1307 32.8309V27.5485C68.0371 27.5485 68.7582 27.3234 69.2938 26.8732C69.8294 26.423 70.2363 25.8277 70.5144 25.0874C70.7925 24.337 70.9985 23.5116 71.1324 22.6112C71.2766 21.7108 71.395 20.8054 71.4877 19.8949C71.6422 18.5343 71.7659 17.2237 71.8586 15.9631C71.9513 14.7025 72.0285 13.4019 72.0903 12.0613C72.1624 10.7107 72.2397 9.22999 72.3221 7.61925H85.7794V27.5485H87.3554V32.8309H85.5631V29.2293H68.9075V32.8309H67.1307ZM70.9779 27.5485H84.0026V9.30003H74.0216C73.9598 10.5706 73.8929 11.8212 73.8208 13.0518C73.759 14.2723 73.6817 15.5029 73.589 16.7435C73.4963 17.9741 73.383 19.2446 73.2491 20.5552C73.1255 21.7258 72.9813 22.7663 72.8165 23.6767C72.662 24.5771 72.4405 25.3525 72.1521 26.0028C71.8637 26.6431 71.4723 27.1583 70.9779 27.5485Z" fill="#262626"/>
<path fill-rule="evenodd" clip-rule="evenodd" d="M90.7668 29.2293V7.61925H99.28C100.434 7.61925 101.469 7.85936 102.386 8.33958C103.313 8.8098 104.039 9.4551 104.564 10.2755C105.1 11.0959 105.367 12.0213 105.367 13.0518C105.367 14.2123 105.038 15.2578 104.379 16.1882C103.908 16.8458 103.326 17.3629 102.635 17.7396C103.661 18.1741 104.505 18.7825 105.167 19.5648C106.032 20.5653 106.464 21.8058 106.464 23.2865C106.464 24.5271 106.181 25.5926 105.615 26.483C105.058 27.3634 104.286 28.0437 103.297 28.5239C102.308 28.9942 101.186 29.2293 99.9289 29.2293H90.7668ZM92.559 27.5335H99.3418C100.331 27.5335 101.216 27.3684 101.999 27.0383C102.792 26.7081 103.416 26.2329 103.869 25.6126C104.332 24.9923 104.564 24.242 104.564 23.3616C104.564 22.4911 104.353 21.7058 103.931 21.0055C103.519 20.2951 102.957 19.7349 102.246 19.3247C101.536 18.9045 100.737 18.6944 99.8517 18.6944H92.559V27.5335ZM92.559 17.0286H99.2646C100.037 17.0286 100.743 16.8535 101.381 16.5034C102.03 16.1532 102.545 15.678 102.926 15.0777C103.307 14.4674 103.498 13.7721 103.498 12.9917C103.498 11.8812 103.091 10.9858 102.277 10.3055C101.474 9.62518 100.47 9.28502 99.2646 9.28502H92.559V17.0286Z" fill="#262626"/>
</svg>
