<svg width="128" height="38" viewBox="0 0 128 38" fill="none" xmlns="http://www.w3.org/2000/svg">
<mask id="path-1-inside-1_67_159" fill="white">
<path d="M30.2786 14.6674L57.6734 25.6743L59.1153 23.2283L30.2786 4.88356V14.6674Z"/>
<path d="M30.2786 29.0375L52.4828 31.4835L56.8083 27.5088L30.2786 18.9479V29.0375Z"/>
<path d="M8.07428 31.4835L30.2786 29.0375V18.9479L4.03714 27.5088L8.07428 31.4835Z"/>
<path d="M2.88367 25.6743L30.2786 14.6674V4.88356L1.15347 23.2283L2.88367 25.6743Z"/>
</mask>
<path d="M30.2786 14.6674L57.6734 25.6743L59.1153 23.2283L30.2786 4.88356V14.6674Z" fill="#D9D9D9"/>
<path d="M30.2786 29.0375L52.4828 31.4835L56.8083 27.5088L30.2786 18.9479V29.0375Z" fill="#D9D9D9"/>
<path d="M8.07428 31.4835L30.2786 29.0375V18.9479L4.03714 27.5088L8.07428 31.4835Z" fill="#D9D9D9"/>
<path d="M2.88367 25.6743L30.2786 14.6674V4.88356L1.15347 23.2283L2.88367 25.6743Z" fill="#D9D9D9"/>
<path d="M54.6312 18.9479C54.6312 21.6664 52.9191 24.9335 48.4723 27.8074C44.0853 30.6425 37.6693 32.5897 30.2786 32.5897V44.4416C39.6102 44.4416 48.3335 42.0085 54.9052 37.7614C61.417 33.5531 66.483 27.0364 66.483 18.9479H54.6312ZM30.2786 32.5897C22.8878 32.5897 16.4718 30.6425 12.0848 27.8074C7.63799 24.9335 5.92593 21.6664 5.92593 18.9479H-5.92593C-5.92593 27.0364 -0.859907 33.5531 5.65192 37.7614C12.2236 42.0085 20.9469 44.4416 30.2786 44.4416V32.5897ZM5.92593 18.9479C5.92593 16.2294 7.63799 12.9623 12.0848 10.0884C16.4718 7.25333 22.8878 5.30605 30.2786 5.30605V-6.5458C20.9469 -6.5458 12.2236 -4.11269 5.65192 0.134348C-0.859907 4.34267 -5.92593 10.8594 -5.92593 18.9479H5.92593ZM30.2786 5.30605C37.6693 5.30605 44.0853 7.25333 48.4723 10.0884C52.9191 12.9623 54.6312 16.2294 54.6312 18.9479H66.483C66.483 10.8594 61.417 4.34267 54.9052 0.134348C48.3335 -4.11269 39.6102 -6.5458 30.2786 -6.5458V5.30605ZM24.3526 4.88356V14.6674H36.2045V4.88356H24.3526ZM24.3526 18.9479V29.0375H36.2045V18.9479H24.3526ZM8.07428 31.4835L-0.240682 39.9291L3.77316 43.8808L9.372 43.2641L8.07428 31.4835ZM52.4828 31.4835L51.1851 43.2641L56.5372 43.8537L60.502 40.2104L52.4828 31.4835ZM30.2786 29.0375L31.5763 17.2569L30.2786 17.114L28.9808 17.2569L30.2786 29.0375ZM4.03714 27.5088L0.361301 16.2414L-18.1624 22.2845L-4.27782 35.9544L4.03714 27.5088ZM56.8083 27.5088L64.8275 36.2357L79.8026 22.4752L60.448 16.2296L56.8083 27.5088ZM30.2786 18.9479L33.9182 7.66875L30.2586 6.48781L26.6027 7.68048L30.2786 18.9479ZM2.88367 25.6743L-6.79213 32.5187L-1.38531 40.1622L7.30226 36.6717L2.88367 25.6743ZM57.6734 25.6743L53.2548 36.6717L62.7093 40.4704L67.8834 31.6928L57.6734 25.6743ZM30.2786 14.6674L34.6971 3.67006L30.2786 1.89474L25.86 3.67006L30.2786 14.6674ZM1.15347 23.2283L-5.16302 13.2L-15.7435 19.8642L-8.52233 30.0727L1.15347 23.2283ZM59.1153 23.2283L69.3253 29.2469L75.1429 19.3777L65.4768 13.2285L59.1153 23.2283ZM30.2786 4.88356L36.6401 -5.11631L30.3101 -9.1432L23.9621 -5.14481L30.2786 4.88356ZM9.372 43.2641L31.5763 40.8181L28.9808 17.2569L6.77656 19.7029L9.372 43.2641ZM28.9808 40.8181L51.1851 43.2641L53.7805 19.7029L31.5763 17.2569L28.9808 40.8181ZM7.71298 38.7762L33.9544 30.2153L26.6027 7.68048L0.361301 16.2414L7.71298 38.7762ZM26.6389 30.227L53.1687 38.7879L60.448 16.2296L33.9182 7.66875L26.6389 30.227ZM7.30226 36.6717L34.6971 25.6648L25.86 3.67006L-1.53492 14.6769L7.30226 36.6717ZM25.86 25.6648L53.2548 36.6717L62.092 14.6769L34.6971 3.67006L25.86 25.6648ZM7.46996 33.2567L36.595 14.9119L23.9621 -5.14481L-5.16302 13.2L7.46996 33.2567ZM23.917 14.8834L52.7537 33.2282L65.4768 13.2285L36.6401 -5.11631L23.917 14.8834ZM67.8834 31.6928L69.3253 29.2469L48.9053 17.2098L47.4634 19.6558L67.8834 31.6928ZM60.502 40.2104L64.8275 36.2357L48.7892 18.7819L44.4637 22.7566L60.502 40.2104ZM16.3892 23.0379L12.3521 19.0632L-4.27782 35.9544L-0.240682 39.9291L16.3892 23.0379ZM12.5595 18.83L10.8293 16.384L-8.52233 30.0727L-6.79213 32.5187L12.5595 18.83Z" fill="#3F62DE" mask="url(#path-1-inside-1_67_159)"/>
<path fill-rule="evenodd" clip-rule="evenodd" d="M60.656 19C60.656 29.4934 47.0777 38 30.328 38C13.5783 38 0 29.4934 0 19C0 8.50659 13.5783 0 30.328 0C47.0777 0 60.656 8.50659 60.656 19ZM30.3269 18.339L4.13456 26.6224C3.95379 26.3923 3.78116 26.1598 3.61682 25.9251L30.328 15.5213L57.0391 25.9251C56.8919 26.1354 56.738 26.3439 56.5775 26.5506L30.3269 18.339ZM8.29608 30.5169C7.05076 29.6289 5.95552 28.6733 5.0235 27.664L29.6805 19.8662V28.2333L8.29608 30.5169ZM30.9755 28.2333V19.8632L55.695 27.5959C54.7496 28.6303 53.6332 29.6089 52.3599 30.5169L30.9755 28.2333ZM30.328 29.4296L50.702 31.6052C45.4805 34.7622 38.3016 36.7422 30.328 36.7422C22.3543 36.7422 15.1754 34.7622 9.95392 31.6052L30.328 29.4296ZM29.6805 14.4184L2.92507 24.8394C2.63177 24.3299 2.37643 23.8114 2.16037 23.2854L29.6805 6.48192V14.4184ZM1.29495 19C1.29495 20.0366 1.44373 21.06 1.73268 22.0609L30.3297 4.59987L58.8801 22.2068C59.1974 21.1595 59.361 20.0871 59.361 19C59.361 14.3244 56.3343 9.91918 51.0712 6.62196C45.8215 3.33311 38.4912 1.25778 30.328 1.25778C22.1647 1.25778 14.8345 3.33311 9.58476 6.62196C4.3217 9.91918 1.29495 14.3244 1.29495 19ZM30.9755 6.48799L58.4377 23.4239C58.2344 23.9024 57.9984 24.3746 57.7309 24.8394L30.9755 14.4184V6.48799Z" fill="white"/>
<path d="M112.843 27.2538C114.347 28.2043 116.206 28.6795 118.421 28.6795C121.006 28.6795 123.102 28.0292 124.709 26.7286C126.326 25.428 127.423 23.6872 128 21.5062L126.161 21.071C125.688 22.8718 124.802 24.3075 123.504 25.378C122.216 26.4485 120.522 26.9837 118.421 26.9837C116.598 26.9837 115.073 26.5785 113.847 25.7681C112.622 24.9478 111.7 23.8222 111.082 22.3916C110.474 20.9509 110.18 19.2951 110.201 17.4243C110.211 15.5534 110.52 13.8976 111.128 12.457C111.746 11.0163 112.658 9.89077 113.863 9.08039C115.078 8.27001 116.598 7.86482 118.421 7.86482C120.522 7.86482 122.216 8.40007 123.504 9.47057C124.802 10.5311 125.688 11.9667 126.161 13.7776L128 13.3424C127.423 11.1614 126.326 9.42055 124.709 8.11994C123.102 6.81934 121.006 6.16904 118.421 6.16904C116.206 6.16904 114.347 6.64926 112.843 7.60971C111.339 8.56015 110.206 9.88076 109.444 11.5715C108.682 13.2623 108.301 15.2132 108.301 17.4243C108.301 19.6353 108.682 21.5862 109.444 23.277C110.206 24.9678 111.339 26.2934 112.843 27.2538Z" fill="white"/>
<path fill-rule="evenodd" clip-rule="evenodd" d="M67.1307 31.8309V26.5485C68.0371 26.5485 68.7582 26.3234 69.2938 25.8732C69.8294 25.423 70.2363 24.8277 70.5144 24.0874C70.7925 23.337 70.9985 22.5116 71.1324 21.6112C71.2766 20.7108 71.395 19.8054 71.4877 18.8949C71.6422 17.5343 71.7659 16.2237 71.8586 14.9631C71.9513 13.7025 72.0285 12.4019 72.0903 11.0613C72.1624 9.71068 72.2397 8.22999 72.3221 6.61925H85.7794V26.5485H87.3554V31.8309H85.5631V28.2293H68.9075V31.8309H67.1307ZM70.9779 26.5485H84.0026V8.30003H74.0216C73.9598 9.57062 73.8929 10.8212 73.8208 12.0518C73.759 13.2723 73.6817 14.5029 73.589 15.7435C73.4963 16.9741 73.383 18.2446 73.2491 19.5553C73.1255 20.7258 72.9813 21.7663 72.8165 22.6767C72.662 23.5771 72.4405 24.3525 72.1521 25.0028C71.8637 25.6431 71.4723 26.1583 70.9779 26.5485Z" fill="white"/>
<path fill-rule="evenodd" clip-rule="evenodd" d="M90.7668 28.2293V6.61925H99.28C100.434 6.61925 101.469 6.85936 102.386 7.33958C103.313 7.8098 104.039 8.4551 104.564 9.27548C105.1 10.0959 105.367 11.0213 105.367 12.0518C105.367 13.2123 105.038 14.2578 104.379 15.1882C103.908 15.8458 103.326 16.3629 102.635 16.7396C103.661 17.1741 104.505 17.7825 105.167 18.5648C106.032 19.5653 106.464 20.8058 106.464 22.2865C106.464 23.5271 106.181 24.5926 105.615 25.483C105.058 26.3634 104.286 27.0437 103.297 27.5239C102.308 27.9942 101.186 28.2293 99.9289 28.2293H90.7668ZM92.559 26.5335H99.3418C100.331 26.5335 101.216 26.3684 101.999 26.0383C102.792 25.7081 103.416 25.2329 103.869 24.6126C104.332 23.9923 104.564 23.242 104.564 22.3616C104.564 21.4911 104.353 20.7058 103.931 20.0055C103.519 19.2951 102.957 18.7349 102.246 18.3247C101.536 17.9045 100.737 17.6944 99.8517 17.6944H92.559V26.5335ZM92.559 16.0286H99.2645C100.037 16.0286 100.743 15.8535 101.381 15.5034C102.03 15.1532 102.545 14.678 102.926 14.0777C103.307 13.4674 103.498 12.7721 103.498 11.9917C103.498 10.8812 103.091 9.98581 102.277 9.30549C101.474 8.62518 100.47 8.28502 99.2645 8.28502H92.559V16.0286Z" fill="white"/>
</svg>
